<svg xmlns="http://www.w3.org/2000/svg" viewBox="0 0 64 64" role="img" aria-label="Cloud AI Summit favicon">
  <defs>
    <radialGradient id="glow" cx="32" cy="24" r="38" gradientUnits="userSpaceOnUse">
      <stop offset="0" stop-color="#52f0a4"/>
      <stop offset="0.45" stop-color="#172235"/>
      <stop offset="1" stop-color="#07090d"/>
    </radialGradient>
    <linearGradient id="gold" x1="10" y1="54" x2="54" y2="10" gradientUnits="userSpaceOnUse">
      <stop offset="0" stop-color="#f7c55a"/>
      <stop offset="1" stop-color="#52f0a4"/>
    </linearGradient>
  </defs>
  <rect width="64" height="64" rx="16" fill="url(#glow)"/>
  <path d="M14 38.5c0-5.2 4.1-9.3 9.2-9.3 1.1-6.1 6.4-10.7 12.8-10.7 7.2 0 13 5.8 13 13v.5c3.5.9 6 4 6 7.8 0 4.5-3.6 8.1-8.1 8.1H23.4C18.2 47.9 14 43.7 14 38.5Z" fill="#f7edda" opacity="0.94"/>
  <path d="M23 40h18M23 34h11M35 34l6 6-6 6" fill="none" stroke="#07110d" stroke-width="4" stroke-linecap="round" stroke-linejoin="round"/>
  <rect x="8" y="8" width="48" height="48" rx="13" fill="none" stroke="url(#gold)" stroke-width="2" opacity="0.85"/>
</svg>
